<svg width="158" height="42" viewBox="0 0 158 42" fill="none" xmlns="http://www.w3.org/2000/svg">
<g clip-path="url(#clip0_9_3)">
<path d="M43.3548 17.3419C43.0839 17.3419 42.8129 17.3419 42.8129 17.4774C42.5419 17.7484 42.4064 18.1548 42.271 18.4258C40.1032 22.2194 35.9032 24.2516 31.5677 23.7097C26.6903 23.1677 23.0323 18.6968 23.5742 13.8194C23.5742 13.5484 23.7097 13.2774 23.7097 12.871C24.3871 9.89032 26.6903 7.72258 29.671 7.04516C30.3484 6.90968 30.6194 7.04516 30.6194 7.72258C30.6194 8.67097 30.6194 9.48387 30.6194 10.4323C30.0774 10.8387 29.8065 10.9742 29.4 11.2452C28.3161 11.7871 27.5032 12.871 27.2323 14.0903C26.8258 16.9355 28.7226 19.6452 31.5677 20.0516H31.7032C35.6323 20.5935 39.2903 17.8839 39.8323 13.9548V13.8194C40.2387 10.7032 39.0194 7.72258 36.5806 5.69032C34.2774 3.65806 31.0258 2.84516 28.0452 3.65806C24.1161 4.33548 20.8645 6.90968 19.1032 10.4323C17.7484 13.0065 17.3419 15.9871 18.0194 18.8323C19.2387 25.3355 24.3871 30.4839 30.8903 31.7032L32.1097 31.9742C32.3806 31.9742 32.5161 32.2452 32.6516 32.5161C32.6516 33.329 32.6516 34.2774 32.6516 35.0903C32.6516 35.3613 32.3806 35.6323 32.1097 35.6323C32.1097 35.6323 32.1097 35.6323 31.9742 35.6323C31.4323 35.6323 30.8903 35.4968 30.3484 35.4968C23.0323 34.2774 17.071 28.9935 14.7677 21.9484C13.6839 18.8323 13.5484 15.4452 14.3613 12.1935C15.5806 7.45161 18.9677 3.52258 23.4387 1.49032C23.8452 1.35484 24.1161 1.21935 24.3871 0.948387C24.5226 0.812903 24.5226 0.812903 24.5226 0.677419C24.5226 0.541935 24.3871 0.406452 24.2516 0.406452C23.8452 0.406452 23.5742 0.406452 23.1677 0.406452H2.43871C1.87455 0.406452 1.76129 0.406452 1.35484 0.406452C0.677419 0.406452 0.135484 0.677419 0 1.35484C0 1.62581 0 2.03226 0 2.30323C0 14.3613 0 26.2839 0 38.2065C0 38.4774 0 38.8839 0 39.2903C0.135484 39.9677 0.677419 40.5097 1.35484 40.6452C1.62581 40.6452 2.03226 40.6452 2.30323 40.6452C7.45161 40.6452 12.7355 40.6452 17.8839 40.6452C18.2903 40.6452 18.9677 40.9161 19.1032 40.3742C19.2387 39.8323 18.5613 39.6968 18.2903 39.4258C10.8387 34.5484 6.09677 26.4194 5.41935 17.4774C5.41935 17.071 5.41935 16.529 5.41935 16.1226C5.41935 15.0387 5.55484 15.0387 6.50323 14.9032H7.72258C9.07742 14.9032 9.07742 14.9032 9.07742 16.2581C9.2129 20.5935 10.5677 24.929 12.871 28.7226C15.7161 33.1935 19.9161 36.5806 24.7935 38.4774C28.0452 39.9677 31.4323 40.6452 34.9548 40.6452C36.9871 40.6452 38.8839 40.6452 40.9161 40.6452C41.3226 40.6452 41.5935 40.6452 42 40.6452C42.6774 40.5097 43.2194 40.1032 43.3548 39.4258C43.3548 39.1548 43.3548 38.8839 43.3548 38.7484C43.3548 31.9742 43.3548 25.3355 43.3548 18.5613C43.4903 18.0194 43.3548 17.7484 43.3548 17.3419ZM130.335 32.5161C129.387 32.3806 128.574 31.8387 128.032 31.1613C127.626 30.6194 127.355 30.0774 127.084 29.5355C126.677 28.5871 126.271 27.6387 125.865 26.5548C125.594 25.7419 125.187 25.0645 124.645 24.3871C124.103 23.8452 123.561 23.4387 122.884 22.8968C123.426 22.6258 123.968 22.4903 124.51 22.2194C126.677 21.271 128.168 19.3742 128.574 17.071C128.845 15.8516 128.845 14.6323 128.574 13.4129C128.168 11.3806 126.813 9.61936 124.781 8.80645C124.374 8.67097 123.968 8.53548 123.697 8.4C122.342 7.99355 120.987 7.72258 119.632 7.72258C115.974 7.72258 112.452 7.72258 108.929 7.72258C108.794 7.72258 108.658 7.72258 108.387 7.72258C108.252 8.26452 108.252 8.67097 108.252 9.2129C108.252 9.61936 108.523 10.1613 108.929 10.1613C109.606 10.4323 110.284 10.7032 110.961 10.9742C110.961 11.3806 110.961 11.6516 110.961 11.9226C110.961 15.0387 110.961 18.1548 110.961 21.271C110.961 25.6065 110.961 29.9419 110.961 34.2774C110.961 34.6839 110.826 35.0903 111.097 35.4968C112.316 35.7677 113.671 35.7677 114.89 35.4968C115.026 34.9548 115.161 34.4129 115.026 33.871C115.026 31.0258 115.026 28.1806 115.026 25.3355C115.026 24.929 114.89 24.3871 115.297 23.9806H116.923C118.955 23.9806 120.852 25.0645 121.8 26.9613C122.206 27.7742 122.477 28.5871 122.884 29.2645C123.29 29.9419 123.697 31.1613 124.103 32.1097C124.781 33.6 126 34.6839 127.355 35.3613C128.574 35.9032 129.929 36.1742 131.148 35.9032C131.419 34.9548 131.419 33.871 131.148 32.7871L130.335 32.5161ZM121.935 19.7806C121.258 20.1871 120.445 20.4581 119.768 20.5935C118.277 20.729 116.652 20.729 115.161 20.5935V10.9742C115.297 10.8387 115.432 10.8387 115.568 10.8387C116.923 10.8387 118.413 10.8387 119.768 10.8387C120.581 10.8387 121.394 11.1097 122.206 11.3806C123.29 11.9226 124.103 12.871 124.374 13.9548C124.645 15.0387 124.645 16.1226 124.239 17.071C123.832 18.2903 123.019 19.2387 121.935 19.7806ZM102.426 11.3806C101.071 9.48387 99.1742 8.12903 96.871 7.45161C94.7032 6.90968 92.4 6.77419 90.2322 7.31613C87.3871 7.85806 84.9484 9.61936 83.5935 12.1935C83.0516 13.1419 82.6452 14.0903 82.3742 15.1742C81.4258 18.9677 81.2903 22.7613 81.9677 26.5548C82.2387 28.0452 82.7806 29.5355 83.4581 30.8903C84.8129 33.329 87.2516 35.2258 89.9613 35.7677C91.7226 36.1742 93.6194 36.1742 95.3806 35.9032C97.5484 35.6323 99.4452 34.6839 100.935 33.1935C102.155 31.9742 102.968 30.4839 103.51 28.9935C104.323 26.6903 104.729 24.2516 104.729 21.6774C104.729 19.9161 104.594 18.1548 104.323 16.529C104.052 14.6323 103.374 12.871 102.426 11.3806ZM99.9871 26.8258C99.7161 27.9097 99.3097 28.8581 98.9032 29.8065C97.9548 31.5677 96.0581 32.6516 94.0258 32.7871C93.4839 32.7871 93.0774 32.7871 92.5355 32.7871C90.3677 32.7871 88.471 31.5677 87.3871 29.5355C86.7097 28.3161 86.3032 26.8258 86.1677 25.471C85.7613 22.4903 85.7613 19.3742 86.4387 16.529C86.5742 15.5806 86.9806 14.6323 87.3871 13.8194C88.3355 11.7871 90.3677 10.4323 92.5355 10.2968C93.3484 10.2968 94.2968 10.2968 95.1097 10.4323C96.7355 10.8387 98.2258 11.9226 99.0387 13.4129C99.7161 14.4968 100.258 15.8516 100.394 17.071C100.529 18.4258 100.665 19.9161 100.8 21.271C100.665 23.1677 100.394 24.929 99.9871 26.8258ZM77.6323 32.2452C76.4129 32.2452 75.329 31.5677 74.7871 30.4839C74.5161 29.9419 74.2452 29.4 73.9742 28.8581C73.7032 28.1806 73.5677 27.5032 73.2968 26.9613C72.8903 25.8774 72.4839 24.7935 72.0774 23.7097C71.5355 22.4903 70.5871 21.4065 69.3677 20.729C69.2323 20.5935 69.0968 20.5935 68.9613 20.4581C70.0452 19.7806 70.9935 18.8323 71.4 17.6129C71.671 17.071 71.8064 16.529 72.0774 15.9871C72.4839 15.0387 72.8903 13.9548 73.2968 13.0065C73.8387 11.5161 75.4645 10.4323 77.0903 10.5677C77.4968 10.5677 77.7677 10.4323 78.0387 10.1613C78.1742 9.2129 78.1742 8.4 78.0387 7.45161C77.7677 7.31613 77.6323 7.31613 77.3613 7.31613C76.2774 7.31613 75.329 7.45161 74.2452 7.5871C72.6193 7.85806 71.129 8.94194 70.4516 10.4323C70.0452 11.2452 69.6387 12.0581 69.2323 12.871C68.8258 13.8194 68.5548 14.7677 68.1484 15.5806C67.7419 16.3935 67.471 17.2065 66.929 18.0194C66.5226 18.6968 65.8452 19.2387 65.0323 19.5097C64.2194 19.6452 63.271 19.5097 62.4581 19.3742C62.4581 18.9677 62.4581 18.5613 62.4581 18.1548C62.4581 15.0387 62.4581 11.9226 62.4581 8.67097C62.5935 8.26452 62.4581 7.85806 62.1871 7.45161C61.9161 7.45161 61.6452 7.31613 61.3742 7.31613H56.3613H55.8194C55.5484 7.31613 55.4129 7.5871 55.2774 7.72258C55.1419 8.26452 55.2774 8.94194 55.4129 9.48387C56.2258 10.0258 57.3097 10.0258 58.1226 10.5677C58.1226 10.8387 58.1226 10.9742 58.1226 11.2452C58.1226 15.7161 58.1226 20.1871 57.9871 24.6581C57.9871 27.6387 57.9871 30.7548 57.9871 33.7355C57.8516 34.1419 57.9871 34.5484 58.1226 34.9548C59.2064 35.2258 60.4258 35.2258 61.5097 35.0903C61.6452 35.0903 61.9161 34.9548 62.0516 34.8194C62.0516 30.7548 62.0516 26.6903 62.1871 22.4903C63.1355 22.3548 63.9484 22.3548 64.8968 22.4903C65.9806 22.6258 67.0645 23.3032 67.6064 24.2516C68.0129 24.7935 68.2839 25.3355 68.5548 26.0129C68.8258 26.6903 69.0968 27.5032 69.3677 28.1806C69.6387 28.8581 70.0452 30.0774 70.4516 30.8903C70.7226 31.5677 71.129 32.2452 71.5355 32.7871C73.0258 34.6839 75.4645 35.7677 78.0387 35.4968C78.5806 35.4968 78.7161 35.2258 78.7161 34.6839C78.7161 34.1419 78.7161 33.4645 78.7161 32.9226C78.7161 32.6516 78.5806 32.3806 78.4452 32.2452C78.3097 32.3806 77.9032 32.2452 77.6323 32.2452ZM156.619 7.85806C155.4 7.72258 154.181 7.85806 152.961 7.99355C152.961 8.4 152.826 8.80645 152.826 9.07742C152.826 13.4129 152.826 17.6129 152.69 21.9484C152.69 23.4387 152.69 24.929 152.69 26.4194C152.69 27.5032 152.419 28.7226 151.877 29.671C151.2 31.0258 149.981 32.1097 148.49 32.5161C147.406 32.7871 146.323 32.9226 145.374 32.7871C143.206 32.5161 141.445 31.0258 140.768 28.9935C140.632 28.7226 140.632 28.4516 140.497 28.1806C140.226 27.0968 140.09 25.8774 140.226 24.7935C140.226 19.6452 140.226 14.3613 140.361 9.2129C140.361 8.94194 140.361 8.67097 140.361 8.4C140.361 8.12903 140.09 7.85806 139.819 7.85806C139.684 7.85806 139.413 7.85806 139.277 7.85806H134.4C134.129 7.85806 133.858 7.85806 133.587 7.99355C133.316 8.67097 133.316 9.48387 133.587 10.2968L136.161 11.2452C136.161 11.6516 136.161 11.9226 136.161 12.329C136.161 13.6839 136.161 15.0387 136.161 16.529C136.161 19.6452 136.161 22.7613 136.161 26.0129C136.161 27.7742 136.432 29.5355 137.245 31.1613C138.329 33.7355 140.497 35.4968 143.071 36.1742C144.832 36.7161 146.729 36.7161 148.49 36.4452C152.419 36.0387 155.535 33.329 156.484 29.5355C156.89 28.1806 157.026 26.8258 157.026 25.471C157.026 22.0839 157.026 18.8323 157.026 15.4452C157.026 13.4129 157.026 11.3806 157.026 9.34839C157.026 8.67097 157.026 8.26452 156.619 7.85806ZM42 0H36.1742C35.9032 0 35.6323 0 35.3613 0.135484C35.3613 0.270968 35.3613 0.541935 35.4968 0.541935C35.6323 0.677419 35.7677 0.812903 36.0387 0.812903C38.8839 2.16774 41.3226 4.47097 42.6774 7.31613C42.8129 7.45161 42.9484 7.72258 43.0839 7.85806C43.2194 7.99355 43.4903 7.99355 43.6258 7.85806C43.6258 7.85806 43.6258 7.85806 43.6258 7.72258C43.6258 7.45161 43.6258 7.18065 43.6258 7.04516C43.6258 5.55484 43.6258 4.06452 43.6258 2.57419C43.6258 2.16774 43.6258 1.76129 43.6258 1.35484C43.3548 0.677419 42.8129 0 42 0Z" fill="black"/>
</g>
<defs>
<clipPath id="clip0_9_3">
<rect width="157.161" height="42" fill="white"/>
</clipPath>
</defs>
</svg>
