<svg width="22" height="26" viewBox="0 0 22 26" fill="none" xmlns="http://www.w3.org/2000/svg">
<path d="M18.875 11.25C19.1071 11.25 19.3296 11.3422 19.4937 11.5063C19.6578 11.6704 19.75 11.8929 19.75 12.125V22.625C19.75 22.8571 19.6578 23.0796 19.4937 23.2437C19.3296 23.4078 19.1071 23.5 18.875 23.5H3.125C2.89294 23.5 2.67038 23.4078 2.50628 23.2437C2.34219 23.0796 2.25 22.8571 2.25 22.625V12.125C2.25 11.8929 2.34219 11.6704 2.50628 11.5063C2.67038 11.3422 2.89294 11.25 3.125 11.25H18.875ZM18.875 9.5H3.125C2.42881 9.5 1.76113 9.77656 1.26884 10.2688C0.776561 10.7611 0.5 11.4288 0.5 12.125V22.625C0.5 23.3212 0.776561 23.9889 1.26884 24.4812C1.76113 24.9734 2.42881 25.25 3.125 25.25H18.875C19.5712 25.25 20.2389 24.9734 20.7312 24.4812C21.2234 23.9889 21.5 23.3212 21.5 22.625V12.125C21.5 11.4288 21.2234 10.7611 20.7312 10.2688C20.2389 9.77656 19.5712 9.5 18.875 9.5Z" fill="#D94E3C"/>
<path d="M11 13.875C10.7679 13.875 10.5454 13.9672 10.3813 14.1313C10.2172 14.2954 10.125 14.5179 10.125 14.75V20C10.125 20.2321 10.2172 20.4546 10.3813 20.6187C10.5454 20.7828 10.7679 20.875 11 20.875C11.2321 20.875 11.4546 20.7828 11.6187 20.6187C11.7828 20.4546 11.875 20.2321 11.875 20V14.75C11.875 14.5179 11.7828 14.2954 11.6187 14.1313C11.4546 13.9672 11.2321 13.875 11 13.875ZM5.75 9.5V7.75C5.75 6.35761 6.30312 5.02226 7.28769 4.03769C8.27225 3.05312 9.60761 2.5 11 2.5C12.3924 2.5 13.7277 3.05312 14.7123 4.03769C15.6969 5.02226 16.25 6.35761 16.25 7.75V9.5H5.75ZM11 0.75C9.14348 0.75 7.36301 1.4875 6.05025 2.80025C4.7375 4.11301 4 5.89348 4 7.75V11.25H18V7.75C18 5.89348 17.2625 4.11301 15.9497 2.80025C14.637 1.4875 12.8565 0.75 11 0.75Z" fill="#D94E3C"/>
</svg>
