<svg width="14" height="15" viewBox="0 0 14 15" fill="none" xmlns="http://www.w3.org/2000/svg">
<path d="M2.8125 3.9375C2.8125 4.98179 3.22734 5.98331 3.96577 6.72174C4.70419 7.46016 5.70571 7.87501 6.75 7.87501C7.79429 7.87501 8.79581 7.46016 9.53423 6.72174C10.2727 5.98331 10.6875 4.98179 10.6875 3.9375C10.6875 2.89321 10.2727 1.89169 9.53423 1.15327C8.79581 0.414843 7.79429 0 6.75 0C5.70571 0 4.70419 0.414843 3.96577 1.15327C3.22734 1.89169 2.8125 2.89321 2.8125 3.9375ZM12.375 14.625H0.5625C0.413316 14.625 0.270242 14.5657 0.164753 14.4603C0.0592633 14.3548 0 14.2117 0 14.0625V12.375C0 11.6291 0.296316 10.9137 0.823762 10.3863C1.35121 9.85882 2.06658 9.56251 2.8125 9.56251H10.6875C11.4334 9.56251 12.1488 9.85882 12.6762 10.3863C13.2037 10.9137 13.5 11.6291 13.5 12.375V14.0625C13.5 14.2117 13.4407 14.3548 13.3352 14.4603C13.2298 14.5657 13.0867 14.625 12.9375 14.625H12.375Z" fill="#626262"/>
</svg>
